<svg xmlns="http://www.w3.org/2000/svg" viewBox="0 0 96 96" role="img" aria-label="沖縄お墓まもりサポートのロゴマーク">
  <rect width="96" height="96" rx="22" fill="#0659c9"/>
  <circle cx="48" cy="48" r="36" fill="#fff"/>
  <path d="M48 51c-12-22 10-40 20-25 8 13-8 23-20 25Z" fill="#f34767"/>
  <path d="M48 51c12-22-10-40-20-25-8 13 8 23 20 25Z" fill="#fff2a6"/>
  <path d="M46 50c-24-8-23 21-5 20 14-1 14-14 5-20Z" fill="#ffffff"/>
  <path d="M50 50c24-8 23 21 5 20-14-1-14-14-5-20Z" fill="#ffffff"/>
  <circle cx="48" cy="50" r="8" fill="#ffd43b"/>
  <path d="M48 58v20" stroke="#2faf55" stroke-width="7" stroke-linecap="round"/>
</svg>
