<svg xmlns="http://www.w3.org/2000/svg" viewBox="0 0 320 210" role="img" aria-label="電話でお問い合わせをするイラスト">
  <defs>
    <linearGradient id="sky" x1="0" y1="0" x2="0" y2="1">
      <stop offset="0" stop-color="#e7f7ff"/>
      <stop offset="1" stop-color="#ffffff"/>
    </linearGradient>
  </defs>
  <rect width="320" height="210" rx="22" fill="url(#sky)"/>
  <path d="M34 152c35-34 71-35 109-4 34 28 79 27 143-13v53H34z" fill="#dff2e8"/>
  <circle cx="254" cy="52" r="24" fill="#ffef9f"/>
  <path d="M65 78c14-18 37-22 55-9 18 14 22 39 8 57-14 18-39 22-57 8-18-14-21-38-6-56z" fill="#fff" stroke="#0a64dc" stroke-width="4"/>
  <path d="M84 86c7 23 18 36 42 43" fill="none" stroke="#0a64dc" stroke-width="9" stroke-linecap="round"/>
  <path d="M83 87l9-7 13 15-9 8m30 26 4-11 17 8-4 11" fill="none" stroke="#0a64dc" stroke-width="5" stroke-linecap="round" stroke-linejoin="round"/>
  <circle cx="204" cy="78" r="18" fill="#ffd6aa"/>
  <path d="M178 150c2-33 14-52 34-52s33 19 35 52z" fill="#0a64dc"/>
  <path d="M187 109c19 17 38 17 52 0" fill="none" stroke="#fff" stroke-width="5" stroke-linecap="round"/>
  <path d="M216 57c-10-10-31-1-32 17 10-3 21-5 36 3 5-7 4-14-4-20z" fill="#124885"/>
  <rect x="139" y="117" width="47" height="35" rx="6" fill="#ffffff" stroke="#0a64dc" stroke-width="4"/>
  <path d="M149 128h26m-26 11h18" stroke="#0a64dc" stroke-width="4" stroke-linecap="round"/>
  <path d="M48 160h222" stroke="#99c7ef" stroke-width="4" stroke-linecap="round"/>
</svg>
