<svg xmlns="http://www.w3.org/2000/svg" viewBox="0 0 320 210" role="img" aria-label="写真付き報告書を送るイラスト">
  <rect width="320" height="210" rx="22" fill="#f3fbff"/>
  <path d="M34 163c47-32 91-31 129-4 35 25 77 20 123-18v48H34z" fill="#e5f5ea"/>
  <rect x="73" y="44" width="91" height="125" rx="14" fill="#fff" stroke="#0a64dc" stroke-width="6"/>
  <path d="M97 68h44m-44 79h44" stroke="#0a64dc" stroke-width="5" stroke-linecap="round"/>
  <rect x="94" y="83" width="49" height="43" rx="7" fill="#d9ecff" stroke="#0a64dc" stroke-width="5"/>
  <path d="M100 117l15-15 10 9 7-8 11 14" fill="none" stroke="#30a04a" stroke-width="4" stroke-linecap="round" stroke-linejoin="round"/>
  <rect x="190" y="69" width="82" height="58" rx="10" fill="#fff" stroke="#0a64dc" stroke-width="6"/>
  <path d="M195 78l36 30 36-30" fill="none" stroke="#0a64dc" stroke-width="5" stroke-linecap="round" stroke-linejoin="round"/>
  <circle cx="224" cy="148" r="26" fill="#30a04a"/>
  <path d="M211 147l10 10 20-25" fill="none" stroke="#fff" stroke-width="7" stroke-linecap="round" stroke-linejoin="round"/>
  <path d="M47 178h233" stroke="#99c7ef" stroke-width="4" stroke-linecap="round"/>
</svg>
